<svg xmlns="http://www.w3.org/2000/svg" viewBox="0 -0.5 43 43" shape-rendering="crispEdges">
<metadata>Made with Pixels to Svg https://codepen.io/shshaw/pen/XbxvNj</metadata>
<path stroke="#000000" d="M12 2h5M11 3h1M17 3h1M10 4h1M18 4h4M9 5h1M22 5h2M9 6h1M24 6h1M10 7h1M25 7h1M9 8h1M26 8h1M8 9h1M27 9h1M8 10h1M27 10h1M7 11h1M27 11h1M7 12h1M27 12h1M7 13h1M7 14h1M7 15h1M16 15h2M23 15h2M8 16h1M8 17h1M26 17h1M9 18h1M26 18h7M9 19h2M26 19h1M33 19h3M8 20h2M25 20h2M36 20h1M8 21h1M24 21h2M37 21h1M7 22h2M23 22h2M37 22h1M7 23h1M22 23h1M37 23h1M6 24h2M22 24h1M37 24h1M6 25h1M22 25h1M37 25h1M6 26h1M22 26h3M36 26h2M5 27h2M34 27h2M37 27h1M5 28h1M28 28h6M37 28h1M5 29h1M37 29h1M5 30h1M22 30h1M37 30h1M5 31h1M22 31h2M36 31h2M5 32h1M22 32h1M24 32h2M34 32h2M37 32h1M5 33h1M22 33h1M26 33h8M37 33h1M5 34h1M22 34h1M37 34h1M5 35h2M22 35h1M37 35h1M6 36h4M20 36h4M36 36h1M9 37h1M13 37h4M20 37h2M24 37h2M34 37h2M9 38h1M14 38h1M16 38h1M21 38h2M26 38h8M9 39h1M15 39h2M22 39h1M10 40h5M17 40h5" />
<path stroke="#c1bfb3" d="M12 3h1M11 4h1M11 5h1M14 5h8M13 6h2M21 6h3M23 7h2M10 8h1M16 8h1M24 8h2M9 9h1M16 9h1M25 9h2M9 10h1M15 10h1M26 10h1M14 11h1M26 11h1M9 12h1M13 12h1M9 13h2M12 13h1M9 14h3" />
<path stroke="#f4e6d1" d="M13 3h4M12 4h6M12 5h2M15 6h6M12 7h11M11 8h5M17 8h7M10 9h6M18 9h7M10 10h5M20 10h6M9 11h5M24 11h2M10 12h3M25 12h1M11 13h1" />
<path stroke="#949a9c" d="M10 5h1M10 6h3M11 7h1M8 11h1M8 12h1M26 12h1M8 13h1M8 14h1M8 15h2M9 16h1M9 17h2M10 18h2" />
<path stroke="#d98343" d="M17 9h1M16 10h4M15 11h1M14 12h1M13 13h1M12 15h1M11 16h2M11 17h2M12 18h1M12 19h2M13 20h2M14 21h3M16 22h2M22 22h1M18 23h3M26 28h2" />
<path stroke="#e9a95d" d="M16 11h8M18 12h4M15 13h3M19 13h2M22 13h3M14 14h5M21 14h5M10 15h2M14 15h2M18 15h1M20 15h3M25 15h1M10 16h1M14 16h5M20 16h6M13 17h1M15 17h3M19 17h2M22 17h3M13 18h2M18 18h4M25 18h1M14 19h12M15 20h3M19 20h6M17 21h2M22 21h2M18 22h4M25 26h1M24 27h4M24 28h2M24 29h3" />
<path stroke="#131622" d="M15 12h3M22 12h3M14 13h1M18 13h1M21 13h1M25 13h2M12 14h2M19 14h2M26 14h1M13 15h1M19 15h1M26 15h1M13 16h1M19 16h1M26 16h1M14 17h1M18 17h1M21 17h1M25 17h1M15 18h3M22 18h3M18 20h1M19 21h3" />
<path stroke="#74291e" d="M11 19h1M10 20h3M9 21h2M12 21h2M9 22h1M14 22h2M8 23h2M15 23h3M21 23h1M8 24h1M18 24h4M7 25h2M12 25h1M19 25h3M7 26h1M12 26h2M7 27h1M13 27h2M6 28h2M14 28h3M6 29h2M15 29h8M6 30h2M17 30h5M6 31h2M20 31h2M6 32h2M20 32h2M6 33h2M21 33h1M6 34h3M21 34h1M7 35h4M21 35h1" />
<path stroke="#283e6e" d="M27 19h6M35 20h1M23 23h1M23 24h3M23 25h5M26 26h2M27 30h1M24 31h4M23 32h1M26 32h2M23 33h3M23 34h5M23 35h5M24 36h4M26 37h2" />
<path stroke="#4270b3" d="M27 20h8M26 21h11M25 22h11M24 23h10M36 23h1M26 24h3M34 24h3M28 25h9M28 26h8M28 27h6M36 27h1M34 28h3M28 29h9M28 30h9M28 31h8M28 32h6M36 32h1M34 33h3M28 34h9M28 35h9M28 36h8M28 37h6" />
<path stroke="#b03f24" d="M11 21h1M10 22h4M10 23h5M9 24h7M9 25h3M13 25h5M8 26h4M14 26h6M8 27h5M15 27h8M8 28h6M17 28h6M8 29h7M8 30h9M8 31h12M8 32h12M8 33h13M9 34h12M11 35h10" />
<path stroke="#79a7c6" d="M36 22h1M34 23h2M29 24h5" />
<path stroke="#3f1c1d" d="M16 24h2M18 25h1M20 26h2M23 27h1M23 28h1M23 29h1M10 36h10" />
<path stroke="#162241" d="M27 29h1M23 30h4" />
<path stroke="#a45726" d="M10 37h3M17 37h3M11 38h3M18 38h3" />
<path stroke="#66321b" d="M10 38h1M17 38h1M10 39h5M17 39h5" />
</svg>